<svg xmlns="http://www.w3.org/2000/svg" xmlns:xlink="http://www.w3.org/1999/xlink" width="500" zoomAndPan="magnify" viewBox="0 0 375 374.999991" height="500" preserveAspectRatio="xMidYMid meet" version="1.0"><path stroke-linecap="butt" transform="matrix(0.69072, 0, 0, 0.691653, 39.33399, 89.260739)" fill="none" stroke-linejoin="miter" d="M 215.397271 79.40251 L 225.497685 79.40251 L 225.497685 139.900733 L 215.900595 140.002392 L 216.098531 79.701839 L 215.199334 80.001167 Z M 215.397271 79.40251 " stroke="#ffffff" stroke-width="2" stroke-opacity="1" stroke-miterlimit="10"/><path stroke-linecap="butt" transform="matrix(0.69072, 0, 0, 0.691653, 39.33399, 89.260739)" fill="none" stroke-linejoin="miter" d="M 284.697651 79.300852 L 284.499715 139.002748 L 274.597237 139.098759 L 274.597237 79.300852 Z M 284.697651 79.300852 " stroke="#ffffff" stroke-width="2" stroke-opacity="1" stroke-miterlimit="10"/><path stroke-linecap="butt" transform="matrix(0.69072, 0, 0, 0.691653, 39.33399, 89.260739)" fill="none" stroke-linejoin="miter" d="M 287.70063 82.299783 L 295.30139 82.299783 L 298.298714 80.599824 L 299.299707 75.799274 L 252.100345 51.497197 L 204.301518 76.30192 L 204.301518 80.899152 " stroke="#ffffff" stroke-width="2" stroke-opacity="1" stroke-miterlimit="10"/><path stroke-linecap="butt" transform="matrix(0.69072, 0, 0, 0.691653, 39.33399, 89.260739)" fill="none" stroke-linejoin="miter" d="M 282.00006 66.89849 L 274.201364 54.501776 L 235.5981 45.002335 L 182.698168 45.002335 L 69.399341 75.799274 L 49.402104 124.900427 L 49.402104 133.298566 L 55.30061 133.298566 " stroke="#ffffff" stroke-width="2" stroke-opacity="1" stroke-miterlimit="10"/><path stroke-linecap="butt" transform="matrix(0.69072, 0, 0, 0.691653, 39.33399, 89.260739)" fill="none" stroke-linejoin="miter" d="M 228.800396 91.302226 L 271.401977 91.302226 L 271.401977 121.500508 L 228.800396 121.500508 Z M 228.800396 91.302226 " stroke="#ffffff" stroke-width="2" stroke-opacity="1" stroke-miterlimit="10"/><path stroke-linecap="butt" transform="matrix(0.69072, 0, 0, 0.691653, 39.33399, 89.260739)" fill="none" stroke-linejoin="miter" d="M 80.800481 91.302226 L 123.19847 91.302226 L 123.19847 121.500508 L 80.800481 121.500508 Z M 80.800481 91.302226 " stroke="#ffffff" stroke-width="2" stroke-opacity="1" stroke-miterlimit="10"/><path stroke-linecap="butt" transform="matrix(0.69072, 0, 0, 0.691653, 39.33399, 89.260739)" fill="none" stroke-linejoin="miter" d="M 149.999066 91.601555 L 193.301907 91.601555 L 193.301907 121.799837 L 149.999066 121.799837 Z M 149.999066 91.601555 " stroke="#ffffff" stroke-width="2" stroke-opacity="1" stroke-miterlimit="10"/><path stroke-linecap="butt" transform="matrix(0.69072, 0, 0, 0.691653, 39.33399, 89.260739)" fill="none" stroke-linejoin="miter" d="M 107.499281 186.200624 L 191.701449 186.200624 L 191.701449 189.397226 L 107.499281 189.397226 Z M 107.499281 186.200624 " stroke="#ffffff" stroke-width="2" stroke-opacity="1" stroke-miterlimit="10"/><path stroke-linecap="butt" transform="matrix(0.69072, 0, 0, 0.691653, 39.33399, 89.260739)" fill="none" stroke-linejoin="miter" d="M 116.700499 158.899615 L 182.602028 158.899615 L 182.602028 186.200624 L 116.700499 186.200624 Z M 116.700499 158.899615 " stroke="#ffffff" stroke-width="2" stroke-opacity="1" stroke-miterlimit="10"/><path stroke-linecap="butt" transform="matrix(0.69072, 0, 0, 0.691653, 39.33399, 89.260739)" fill="none" stroke-linejoin="miter" d="M 274.597237 79.300852 L 274.597237 139.098759 L 284.499715 139.002748 L 284.697651 79.300852 C 284.697651 79.300852 274.597237 79.300852 274.597237 79.300852 Z M 285.902236 75.799274 L 266.001139 75.799274 M 215.199334 80.001167 L 212.801475 80.899152 L 212.501743 81.000811 L 212.501743 140.002392 L 195.999498 140.098403 L 195.999498 81.30014 L 192.798583 81.30014 L 192.798583 88.297647 L 180.102373 88.297647 L 180.102373 81.30014 L 176.901458 81.30014 L 176.901458 88.297647 L 164.199593 88.297647 L 164.199593 81.30014 L 160.998677 81.30014 L 160.998677 88.297647 L 149.399601 88.297647 L 149.399601 81.30014 L 146.198686 81.30014 L 146.198686 139.601405 L 126.399385 139.799075 L 126.399385 81.30014 L 123.19847 81.30014 L 123.19847 88.997962 L 110.50226 88.997962 L 110.50226 81.30014 L 107.397485 81.30014 L 107.397485 88.997962 L 94.701275 88.997962 L 94.701275 81.30014 L 91.50036 81.30014 L 91.50036 88.997962 L 79.901284 88.997962 L 79.901284 81.30014 L 76.700368 81.30014 L 76.700368 140.200062 L 55.402406 140.200062 M 235.699896 76.200261 L 216.601855 76.200261 L 215.30113 79.40251 L 215.499067 79.40251 " stroke="#ffffff" stroke-width="2" stroke-opacity="1" stroke-miterlimit="10"/><path stroke-linecap="butt" transform="matrix(0.69072, 0, 0, 0.691653, 39.33399, 89.260739)" fill="none" stroke-linejoin="miter" d="M 128.599307 59.200667 L 128.599307 45.600992 L 154.902234 45.600992 L 154.902234 52.299171 " stroke="#ffffff" stroke-width="2" stroke-opacity="1" stroke-miterlimit="10"/><path stroke-linecap="butt" transform="matrix(0.69072, 0, 0, 0.691653, 39.33399, 89.260739)" fill="none" stroke-linejoin="miter" d="M 127.70011 41.500758 L 155.897572 41.500758 L 155.897572 45.499333 L 127.70011 45.499333 Z M 127.70011 41.500758 " stroke="#ffffff" stroke-width="2" stroke-opacity="1" stroke-miterlimit="10"/><path stroke-linecap="butt" transform="matrix(0.69072, 0, 0, 0.691653, 39.33399, 89.260739)" fill="none" stroke-linejoin="miter" d="M 85.200325 76.30192 L 104.298366 76.30192 " stroke="#ffffff" stroke-width="2" stroke-opacity="1" stroke-miterlimit="10"/><path stroke-linecap="butt" transform="matrix(0.69072, 0, 0, 0.691653, 39.33399, 89.260739)" fill="none" stroke-linejoin="miter" d="M 106.899816 76.30192 L 111.899126 76.30192 " stroke="#ffffff" stroke-width="2" stroke-opacity="1" stroke-miterlimit="10"/><path stroke-linecap="butt" transform="matrix(0.69072, 0, 0, 0.691653, 39.33399, 89.260739)" fill="none" stroke-linejoin="miter" d="M 114.200844 76.30192 L 119.200153 76.30192 " stroke="#ffffff" stroke-width="2" stroke-opacity="1" stroke-miterlimit="10"/><path stroke-linecap="butt" transform="matrix(0.69072, 0, 0, 0.691653, 39.33399, 89.260739)" fill="none" stroke-linejoin="miter" d="M 197.402019 51.497197 L 216.50006 51.497197 " stroke="#ffffff" stroke-width="2" stroke-opacity="1" stroke-miterlimit="10"/><path stroke-linecap="butt" transform="matrix(0.69072, 0, 0, 0.691653, 39.33399, 89.260739)" fill="none" stroke-linejoin="miter" d="M 219.10151 51.497197 L 224.100819 51.497197 " stroke="#ffffff" stroke-width="2" stroke-opacity="1" stroke-miterlimit="10"/><path stroke-linecap="butt" transform="matrix(0.69072, 0, 0, 0.691653, 39.33399, 89.260739)" fill="none" stroke-linejoin="miter" d="M 226.402538 51.497197 L 231.401847 51.497197 " stroke="#ffffff" stroke-width="2" stroke-opacity="1" stroke-miterlimit="10"/><path stroke-linecap="butt" transform="matrix(0.69072, 0, 0, 0.691653, 39.33399, 89.260739)" fill="none" stroke-linejoin="miter" d="M 169.198902 155.002698 L 174.198211 155.002698 " stroke="#ffffff" stroke-width="2" stroke-opacity="1" stroke-miterlimit="10"/><path stroke-linecap="butt" transform="matrix(0.69072, 0, 0, 0.691653, 39.33399, 89.260739)" fill="none" stroke-linejoin="miter" d="M 176.601725 155.002698 L 181.601035 155.002698 " stroke="#ffffff" stroke-width="2" stroke-opacity="1" stroke-miterlimit="10"/><path stroke-linecap="butt" transform="matrix(0.69072, 0, 0, 0.691653, 39.33399, 89.260739)" fill="none" stroke-linejoin="miter" d="M 91.302424 139.200418 L 79.697692 139.200418 L 79.697692 124.30177 L 91.302424 124.200112 Z M 91.302424 139.200418 " stroke="#ffffff" stroke-width="2" stroke-opacity="1" stroke-miterlimit="10"/><path stroke-linecap="butt" transform="matrix(0.69072, 0, 0, 0.691653, 39.33399, 89.260739)" fill="none" stroke-linejoin="miter" d="M 107.499281 139.098759 L 94.797416 139.098759 L 94.899212 124.30177 L 107.601077 124.200112 Z M 107.499281 139.098759 " stroke="#ffffff" stroke-width="2" stroke-opacity="1" stroke-miterlimit="10"/><path stroke-linecap="butt" transform="matrix(0.69072, 0, 0, 0.691653, 39.33399, 89.260739)" fill="none" stroke-linejoin="miter" d="M 123.19847 139.002748 L 110.50226 139.002748 L 110.50226 124.30177 L 123.19847 124.200112 Z M 123.19847 139.002748 " stroke="#ffffff" stroke-width="2" stroke-opacity="1" stroke-miterlimit="10"/><path stroke-linecap="butt" transform="matrix(0.69072, 0, 0, 0.691653, 39.33399, 89.260739)" fill="none" stroke-linejoin="miter" d="M 373.899129 196.101052 L 373.899129 146.299584 " stroke="#ffffff" stroke-width="2" stroke-opacity="1" stroke-miterlimit="10"/><path stroke-linecap="butt" transform="matrix(0.69072, 0, 0, 0.691653, 39.33399, 89.260739)" fill="none" stroke-linejoin="miter" d="M 287.70063 146.299584 L 55.600342 146.598912 " stroke="#ffffff" stroke-width="2" stroke-opacity="1" stroke-miterlimit="10"/><path stroke-linecap="butt" transform="matrix(0.69072, 0, 0, 0.691653, 39.33399, 89.260739)" fill="none" stroke-linejoin="miter" d="M 288.000363 101.597994 L 380.702488 140.702708 L 376.902108 142.798006 L 287.70063 106.500202 L 287.898567 101.298665 " stroke="#ffffff" stroke-width="2" stroke-opacity="1" stroke-miterlimit="10"/><path stroke-linecap="butt" transform="matrix(0.69072, 0, 0, 0.691653, 39.33399, 89.260739)" fill="none" stroke-linejoin="miter" d="M 287.70063 143.498322 L 376.099051 143.498322 L 373.899129 146.299584 L 287.598834 146.299584 " stroke="#ffffff" stroke-width="2" stroke-opacity="1" stroke-miterlimit="10"/><path stroke-linecap="butt" transform="matrix(0.69072, 0, 0, 0.691653, 39.33399, 89.260739)" fill="none" stroke-linejoin="miter" d="M 243.102719 151.800449 L 266.300872 151.800449 L 266.300872 195.999394 L 243.102719 195.999394 Z M 243.102719 151.800449 " stroke="#ffffff" stroke-width="2" stroke-opacity="1" stroke-miterlimit="10"/><path stroke-linecap="butt" transform="matrix(0.69072, 0, 0, 0.691653, 39.33399, 89.260739)" fill-opacity="1" fill="#000000" fill-rule="nonzero" stroke-linejoin="miter" d="M 247.400768 173.600593 C 247.400768 173.849092 247.310283 174.058057 247.134968 174.238784 C 246.959652 174.413863 246.750405 174.498578 246.501571 174.498578 C 246.252736 174.498578 246.037834 174.413863 245.862519 174.238784 C 245.687204 174.058057 245.602374 173.849092 245.602374 173.600593 C 245.602374 173.352094 245.687204 173.137481 245.862519 172.962402 C 246.037834 172.787323 246.252736 172.702608 246.501571 172.702608 C 246.750405 172.702608 246.959652 172.787323 247.134968 172.962402 C 247.310283 173.137481 247.400768 173.352094 247.400768 173.600593 Z M 247.400768 173.600593 " stroke="#ffffff" stroke-width="2" stroke-opacity="1" stroke-miterlimit="10"/><path stroke-linecap="butt" transform="matrix(0.69072, 0, 0, 0.691653, 39.33399, 89.260739)" fill="none" stroke-linejoin="miter" d="M 287.70063 143.498322 L 55.402406 143.498322 " stroke="#ffffff" stroke-width="2" stroke-opacity="1" stroke-miterlimit="10"/><path stroke-linecap="butt" transform="matrix(0.69072, 0, 0, 0.691653, 39.33399, 89.260739)" fill="none" stroke-linejoin="miter" d="M 236.101424 76.49959 C 235.298367 75.200617 234.297375 72.800343 231.701579 68.700108 L 234.602762 66.497503 L 240.201536 76.397931 L 246.99924 76.397931 C 246.801303 76.002592 240.699205 63.7979 240.297677 62.899915 L 243.798324 61.301614 L 249.900423 74.601961 L 249.702486 58.201023 C 249.702486 57.698378 250.098359 57.399049 250.499887 57.399049 L 251.50088 57.399049 C 252.100345 57.399049 252.598014 57.901695 252.598014 58.500352 L 252.598014 74.398643 L 258.202443 60.30197 L 261.301562 62.09794 L 255.499197 76.397931 L 262.200759 76.397931 L 267.200069 65.401848 L 269.801519 66.802479 L 266.001139 76.200261 " stroke="#ffffff" stroke-width="2" stroke-opacity="1" stroke-miterlimit="10"/><path stroke-linecap="butt" transform="matrix(0.69072, 0, 0, 0.691653, 39.33399, 89.260739)" fill="none" stroke-linejoin="miter" d="M 39.199893 196.400381 L 389.700114 196.400381 " stroke="#ffffff" stroke-width="2" stroke-opacity="1" stroke-miterlimit="10"/><path stroke-linecap="butt" transform="matrix(0.69072, 0, 0, 0.691653, 39.33399, 89.260739)" fill="none" stroke-linejoin="miter" d="M 301.301692 153.602067 L 357.300743 153.602067 L 357.300743 185.200981 L 301.301692 185.200981 Z M 301.301692 153.602067 " stroke="#ffffff" stroke-width="2" stroke-opacity="1" stroke-miterlimit="10"/><path stroke-linecap="butt" transform="matrix(0.69072, 0, 0, 0.691653, 39.33399, 89.260739)" fill="none" stroke-linejoin="miter" d="M 274.597237 79.300852 L 274.597237 139.098759 L 284.499715 139.002748 L 284.697651 79.300852 C 284.697651 79.300852 274.597237 79.300852 274.597237 79.300852 Z M 287.70063 146.299584 L 287.70063 196.400381 L 57.998201 196.400381 L 57.998201 147.502545 L 55.30061 146.80223 L 55.30061 124.098453 L 74.998115 80.899152 L 214.899602 80.899152 L 215.199334 80.001167 L 216.098531 79.701839 L 215.900595 140.002392 L 225.497685 139.900733 L 225.497685 79.40251 L 215.397271 79.40251 L 216.601855 76.200261 L 216.697996 76.002592 L 250.997556 56.602723 L 287.70063 76.601248 L 287.70063 106.500202 " stroke="#ffffff" stroke-width="2" stroke-opacity="1" stroke-miterlimit="10"/><path stroke-linecap="butt" transform="matrix(0.69072, 0, 0, 0.691653, 39.33399, 89.260739)" fill="none" stroke-linejoin="miter" d="M 161.202269 139.200418 L 149.597537 139.200418 L 149.597537 124.200112 L 161.202269 124.098453 Z M 161.202269 139.200418 " stroke="#ffffff" stroke-width="2" stroke-opacity="1" stroke-miterlimit="10"/><path stroke-linecap="butt" transform="matrix(0.69072, 0, 0, 0.691653, 39.33399, 89.260739)" fill="none" stroke-linejoin="miter" d="M 177.399126 139.098759 L 164.697261 139.098759 L 164.799057 124.30177 L 177.500922 124.200112 Z M 177.399126 139.098759 " stroke="#ffffff" stroke-width="2" stroke-opacity="1" stroke-miterlimit="10"/><path stroke-linecap="butt" transform="matrix(0.69072, 0, 0, 0.691653, 39.33399, 89.260739)" fill="none" stroke-linejoin="miter" d="M 193.098315 139.002748 L 180.402105 139.002748 L 180.402105 124.30177 L 193.098315 124.200112 Z M 193.098315 139.002748 " stroke="#ffffff" stroke-width="2" stroke-opacity="1" stroke-miterlimit="10"/><path stroke-linecap="butt" transform="matrix(0.69072, 0, 0, 0.691653, 39.33399, 89.260739)" fill="none" stroke-linejoin="miter" d="M 239.901804 139.200418 L 228.302728 139.200418 L 228.302728 124.30177 L 239.901804 124.200112 Z M 239.901804 139.200418 " stroke="#ffffff" stroke-width="2" stroke-opacity="1" stroke-miterlimit="10"/><path stroke-linecap="butt" transform="matrix(0.69072, 0, 0, 0.691653, 39.33399, 89.260739)" fill="none" stroke-linejoin="miter" d="M 256.098661 139.098759 L 243.402452 139.098759 L 243.498592 124.30177 L 256.200457 124.200112 Z M 256.098661 139.098759 " stroke="#ffffff" stroke-width="2" stroke-opacity="1" stroke-miterlimit="10"/><path stroke-linecap="butt" transform="matrix(0.69072, 0, 0, 0.691653, 39.33399, 89.260739)" fill="none" stroke-linejoin="miter" d="M 271.498118 139.002748 L 258.801908 139.002748 L 258.801908 124.30177 L 271.498118 124.200112 Z M 271.498118 139.002748 " stroke="#ffffff" stroke-width="2" stroke-opacity="1" stroke-miterlimit="10"/><path stroke-linecap="butt" transform="matrix(0.69072, 0, 0, 0.691653, 39.33399, 89.260739)" fill="none" stroke-linejoin="miter" d="M 323.600648 121.500508 L 287.598834 121.500508 L 287.598834 106.601861 " stroke="#ffffff" stroke-width="2" stroke-opacity="1" stroke-miterlimit="10"/><path stroke-linecap="butt" transform="matrix(0.69072, 0, 0, 0.691653, 39.33399, 89.260739)" fill="none" stroke-linejoin="miter" d="M 367.401158 139.302077 L 287.70063 139.002748 L 287.70063 124.30177 L 330.79988 124.30177 " stroke="#ffffff" stroke-width="2" stroke-opacity="1" stroke-miterlimit="10"/><path stroke-linecap="butt" transform="matrix(0.69072, 0, 0, 0.691653, 39.33399, 89.260739)" fill="none" stroke-linejoin="miter" d="M 256.398394 88.800293 L 243.702184 88.800293 L 243.702184 80.001167 L 256.398394 79.899509 Z M 256.398394 88.800293 " stroke="#ffffff" stroke-width="2" stroke-opacity="1" stroke-miterlimit="10"/><path stroke-linecap="butt" transform="matrix(0.69072, 0, 0, 0.691653, 39.33399, 89.260739)" fill="none" stroke-linejoin="miter" d="M 240.902797 88.800293 L 228.200932 88.800293 L 228.200932 80.001167 L 240.902797 79.899509 Z M 240.902797 88.800293 " stroke="#ffffff" stroke-width="2" stroke-opacity="1" stroke-miterlimit="10"/><path stroke-linecap="butt" transform="matrix(0.69072, 0, 0, 0.691653, 39.33399, 89.260739)" fill="none" stroke-linejoin="miter" d="M 272.001442 88.800293 L 259.299577 88.800293 L 259.299577 80.001167 L 272.001442 79.899509 Z M 272.001442 88.800293 " stroke="#ffffff" stroke-width="2" stroke-opacity="1" stroke-miterlimit="10"/></svg>